<?xml version="1.0" standalone="no"?><!DOCTYPE svg PUBLIC "-//W3C//DTD SVG 1.1//EN" "http://www.w3.org/Graphics/SVG/1.1/DTD/svg11.dtd"><svg t="1494656981473" class="icon" style="" viewBox="0 0 1027 1024" version="1.1" xmlns="http://www.w3.org/2000/svg" p-id="102113" xmlns:xlink="http://www.w3.org/1999/xlink" width="28.08203125" height="28"><defs><style type="text/css"></style></defs><path d="M908.468466 0 120.774431 0C55.632682 0 2.620938 53.011744 2.620938 118.153493l0 787.693014c0 65.142769 53.011744 118.153493 118.153493 118.153493l787.693014 0c65.142769 0 118.153493-53.011744 118.153493-118.153493L1026.620938 118.153493C1026.621959 53.011744 973.610215 0 908.468466 0zM105.567273 734.36488c0.81445 10.749113-7.267797 20.124479-18.01691 20.937909-0.506225 0.056134-0.985914 0.056134-1.491118 0.056134-10.103064 0-18.665-7.857712-19.422296-18.103662-13.191444-177.195028 93.383176-241.558048 158.419802-264.205486-37.415732-29.642731-75.225421-80.193773-69.863112-150.53045C163.920914 209.43012 267.999111 169.855788 321.804893 164.718014c10.861381-0.980811 20.266345 6.848324 21.276753 17.598458 1.036944 10.723598-6.821788 20.240829-17.516809 21.276753-5.109197 0.535823-123.051422 13.640514-131.41638 121.928746-7.297395 95.092705 84.545674 135.569261 88.471978 137.252254 8.196556 3.508873 12.993445 12.181036 11.618677 20.996084-1.400283 8.814028-8.560915 15.57662-17.430057 16.419648C269.233034 500.919697 89.73652 521.326887 105.567273 734.36488zM818.245113 884.527909c-10.775649 0-19.533543-8.698698-19.533543-19.504966 0-155.638627-88.89043-323.180682-284.10441-323.180682-195.217041 0-284.108492 167.541034-284.108492 323.180682 0 10.77667-8.728296 19.504966-19.534564 19.504966-10.750134 0-19.509048-8.698698-19.509048-19.504966 0-150.979521 75.982717-311.698767 240.290445-352.257992-65.985797-31.214478-111.877734-98.240281-111.877734-175.962126 0-107.38805 87.375838-194.763888 194.763888-194.763888s194.767971 87.375838 194.767971 194.763888c0 77.721845-45.8654 144.747648-111.881816 175.962126 164.337325 40.558204 240.289424 201.277451 240.235331 352.257992C837.754161 875.799613 829.025865 884.527909 818.245113 884.527909zM962.601866 737.200147c-0.757296 10.271466-9.319232 18.103662-19.423317 18.103662-0.505204 0-0.983872 0-1.489077-0.060216-10.750134-0.81343-18.832381-10.184713-18.018951-20.933826 15.829733-213.013498-163.665761-233.416605-171.301999-234.149406-8.870162-0.869564-16.055289-7.717888-17.375964-16.531916-1.344149-8.813007 3.457842-17.428015 11.680934-20.908311 3.845676-1.628901 95.71426-42.131992 88.385226-137.22776-8.390473-108.931219-126.306162-121.424563-131.329628-121.899149-10.723598-1.035924-18.609887-10.582753-17.572943-21.303289 1.011429-10.695021 10.472527-18.527217 21.278794-17.571922 53.805782 5.165331 157.85336 44.742724 166.556141 157.80233 5.442938 70.337698-32.391246 120.832606-69.805958 150.53045C869.246246 495.697212 975.820866 560.061253 962.601866 737.200147z" p-id="102114" fill="#88147f"></path><path d="M670.357034 336.803846c0-85.859205-69.837597-155.720276-155.725379-155.720276-85.887782 0-155.720276 69.861071-155.720276 155.720276 0 85.832669 69.831473 155.668224 155.720276 155.668224C600.520458 492.47207 670.357034 422.636515 670.357034 336.803846z" p-id="102115" fill="#88147f"></path></svg>