<?xml version="1.0" standalone="no"?><!DOCTYPE svg PUBLIC "-//W3C//DTD SVG 1.1//EN" "http://www.w3.org/Graphics/SVG/1.1/DTD/svg11.dtd"><svg t="1494649073887" class="icon" style="" viewBox="0 0 1024 1024" version="1.1" xmlns="http://www.w3.org/2000/svg" p-id="7726" xmlns:xlink="http://www.w3.org/1999/xlink" width="28" height="28"><defs><style type="text/css"></style></defs><path d="M824.021333 0.426667 200.149333 0.426667c-110.250667 0-199.722667 89.386667-199.722667 199.637333l0 623.786667c0 110.250667 89.472 199.765333 199.722667 199.765333l623.786667 0c110.250667 0 199.637333-89.514667 199.637333-199.765333L1023.573333 200.064C1023.530667 89.813333 934.229333 0.426667 824.021333 0.426667zM289.92 791.594667c0 22.229333-16.298667 40.234667-38.485333 40.234667L210.133333 831.829333c-22.144 0-38.272-18.090667-38.272-40.234667l0-36.565333 118.101333 0L289.92 791.594667 289.92 791.594667zM289.92 714.922667 171.818667 714.922667 171.818667 394.965333l118.101333 0L289.92 714.922667zM289.92 353.194667l-118.101333 1.28L171.818667 313.216c0-22.144 16.170667-40.106667 38.272-40.106667l41.301333 0c22.229333 0 38.485333 17.962667 38.485333 40.106667L289.92 353.194667 289.92 353.194667zM491.861333 791.594667c0 22.229333-17.92 40.234667-40.106667 40.234667L369.152 831.829333c-22.186667 0-36.778667-18.090667-36.778667-40.234667l0-36.266667 159.488 0L491.861333 791.594667zM491.861333 713.685333 332.373333 713.344 332.373333 313.6l159.488 0L491.861333 713.685333zM491.861333 273.92 332.373333 272.725333 332.373333 230.997333c0-22.101333 14.634667-40.021333 36.778667-40.021333l82.602667 0c22.229333 0 40.106667 17.962667 40.106667 40.021333L491.861333 273.92zM732.074667 792.917333c0 22.101333-17.92 40.064-40.021333 40.064l-121.002667 0c-22.186667 0-40.106667-18.005333-40.106667-40.064L530.944 313.6c0-22.144 17.962667-40.064 40.106667-40.064l121.002667 0c22.101333 0 40.021333 17.92 40.021333 40.064L732.074667 792.917333zM852.266667 792.917333c0 22.101333-15.36 40.064-37.504 40.064L808.533333 832.981333c-22.229333 0-35.882667-16.256-35.882667-38.314667l0-79.402667 79.573333-1.578667L852.224 792.917333 852.266667 792.917333zM852.266667 671.402667l-79.573333 1.749333 0-117.589333 79.573333-0.469333L852.266667 671.402667zM852.266667 513.024l-79.573333 0 0-78.848c0-22.101333 13.738667-41.728 35.925333-41.728l6.186667 0c22.186667 0 37.589333 17.962667 37.589333 40.064l0 80.512L852.266667 513.024z" p-id="7727" fill="#0061b0"></path></svg>