<?xml version="1.0" standalone="no"?><!DOCTYPE svg PUBLIC "-//W3C//DTD SVG 1.1//EN" "http://www.w3.org/Graphics/SVG/1.1/DTD/svg11.dtd"><svg t="1494649175670" class="icon" style="" viewBox="0 0 1025 1024" version="1.1" xmlns="http://www.w3.org/2000/svg" p-id="9584" xmlns:xlink="http://www.w3.org/1999/xlink" width="28.02734375" height="28"><defs><style type="text/css"></style></defs><path d="M-1415.836604 4192.14054" p-id="9585" fill="#2aa515"></path><path d="M103.839642 265.888138" p-id="9586" fill="#2aa515"></path><path d="M1024 867.555968c0 86.40001-70.040953 156.444032-156.444032 156.444032L156.446079 1024c-86.403079 0-156.446079-70.041976-156.446079-156.444032L0 156.446079C0 70.040953 70.040953 0 156.446079 0l711.110912 0c86.402056 0 156.444032 70.03993 156.444032 156.446079L1024 867.555968 1024 867.555968z" p-id="9587" fill="#2aa515" class=""></path><path d="M8178.810018 2820.603447" p-id="9588" fill="#2aa515"></path><path d="M835.433399 433.558492c-2.757719-8.281344-9.824439-14.291023-18.431183-15.588533l-195.997606-30.287841-87.524586-187.469653c-3.816806-8.12069-12.016288-13.397706-21.029272-13.397706l0 0c-9.014007 0-17.130604 5.196178-21.030295 13.314821l-88.335018 186.987692-196.240121 29.632947c-8.605721 1.299556-15.751233 7.227373-18.512022 15.508717-2.761812 8.200505-0.732663 17.37312 5.358878 23.545499l142.408827 146.470196L302.085377 808.74543c-1.464303 8.769445 2.271665 17.617682 9.498015 22.733021 7.225327 5.115339 16.80418 5.683255 24.59947 1.382441l175.295781-96.458778 174.885448 97.106509c3.573267 1.867472 7.39212 2.838558 11.284649 2.838558l0.490148 0c12.827743 0 23.13619-10.392355 23.13619-23.217029 0-2.842651-0.486054-5.605486-1.459187-8.205622l-32.476621-202.001145 142.735251-145.902279C836.082154 450.848727 838.193165 441.757974 835.433399 433.558492L835.433399 433.558492z" p-id="9589" class="" fill="#ffffff"></path></svg>