<?xml version="1.0" standalone="no"?><!DOCTYPE svg PUBLIC "-//W3C//DTD SVG 1.1//EN" "http://www.w3.org/Graphics/SVG/1.1/DTD/svg11.dtd"><svg t="1494649300893" class="icon" style="" viewBox="0 0 1024 1024" version="1.1" xmlns="http://www.w3.org/2000/svg" p-id="12136" xmlns:xlink="http://www.w3.org/1999/xlink" width="28" height="28"><defs><style type="text/css"></style></defs><path d="M853.770456 0.045025 172.939259 0.045025c-94.01728 0-170.208567 76.211752-170.208567 170.208567l0 680.83222c0 93.996814 76.190263 170.207543 170.208567 170.207543l680.831196 0c94.018304 0 170.207543-76.210729 170.207543-170.207543L1023.977999 170.253592C1023.977999 76.255755 947.788759 0.045025 853.770456 0.045025zM981.426881 829.808206c0 77.042677-54.915727 148.931984-148.931984 148.931984L194.214818 978.74019c-94.01728 0-148.931984-54.93517-148.931984-148.931984L45.282834 170.253592C57.77024 70.188572 116.694257 44.424792 194.214818 42.597167l638.280078 0c94.016257 0 148.931984 63.413262 148.931984 148.933007L981.426881 829.808206z" p-id="12137" fill="#d81e06" class=""></path><path d="M517.22756 215.077473c-164.725692 0-298.261011 133.535319-298.261011 298.261011 0 164.724669 133.536342 298.259988 298.261011 298.259988 164.724669 0 298.259988-133.535319 298.259988-298.259988C815.487547 348.612793 681.952228 215.077473 517.22756 215.077473zM518.250866 771.889075c-142.794194 0-258.552637-115.297956-258.552637-257.527285 0-142.230352 115.758444-257.529331 258.552637-257.529331 142.79317 0 258.550591 115.298979 258.550591 257.529331C776.801457 656.591119 661.044036 771.889075 518.250866 771.889075z" p-id="12138" fill="#d81e06" class=""></path><path d="M536.669354 544.903388c0 4.904707-5.498224 8.881274-12.279674 8.881274l-14.326287 0c-6.78145 0-12.279674-3.976568-12.279674-8.881274L497.783719 396.890332c0-4.904707 5.498224-8.881274 12.279674-8.881274l14.326287 0c6.78145 0 12.279674 3.976568 12.279674 8.881274L536.669354 544.903388z" p-id="12139" fill="#d81e06"></path><path d="M713.93157 541.504988c0 6.78145-5.498224 12.279674-12.279674 12.279674l-188.288341 0c-6.78145 0-12.279674-5.498224-12.279674-12.279674l0-15.887852c0-6.78145 5.498224-12.279674 12.279674-12.279674l188.288341 0c6.78145 0 12.279674 5.498224 12.279674 12.279674L713.93157 541.504988z" p-id="12140" fill="#d81e06"></path></svg>