<?xml version="1.0" standalone="no"?><!DOCTYPE svg PUBLIC "-//W3C//DTD SVG 1.1//EN" "http://www.w3.org/Graphics/SVG/1.1/DTD/svg11.dtd"><svg t="1494661221045" class="icon" style="" viewBox="0 0 1024 1024" version="1.1" xmlns="http://www.w3.org/2000/svg" p-id="116346" xmlns:xlink="http://www.w3.org/1999/xlink" width="75" height="75"><defs><style type="text/css"></style></defs><path d="M512 0C230.4 0 0 224 0 512c0 281.6 230.4 512 512 512 281.6 0 512-230.4 512-512C1024 224 793.6 0 512 0zM512 992c-262.4 0-480-217.6-480-480 0-262.4 217.6-480 480-480s480 217.6 480 480C992 774.4 774.4 992 512 992z" p-id="116347" fill="#d81e06"></path><path d="M678.4 486.4c-6.4 0-12.8 0-6.4-12.8 6.4-25.6 12.8-44.8 0-64-19.2-25.6-76.8-25.6-140.8 0 0 0-19.2 6.4-12.8-6.4C524.8 371.2 524.8 339.2 512 326.4c-32-32-128 0-204.8 83.2C243.2 467.2 211.2 524.8 211.2 582.4c0 102.4 134.4 166.4 262.4 166.4 172.8 0 281.6-102.4 281.6-179.2C755.2 518.4 716.8 499.2 678.4 486.4zM473.6 710.4c-102.4 6.4-192-38.4-198.4-102.4C268.8 537.6 345.6 473.6 448 460.8c102.4-6.4 192 38.4 198.4 102.4S576 704 473.6 710.4z" p-id="116348" fill="#d81e06"></path><path d="M633.6 243.2C620.8 243.2 614.4 256 614.4 275.2c0 12.8 12.8 19.2 25.6 19.2 38.4-6.4 83.2 0 108.8 38.4 25.6 32 38.4 76.8 25.6 115.2 0 12.8 0 25.6 12.8 32 12.8 0 25.6 0 32-12.8 12.8-57.6 6.4-115.2-32-166.4C748.8 249.6 691.2 230.4 633.6 243.2z" p-id="116349" fill="#d81e06"></path><path d="M716.8 441.6c6.4 0 19.2 0 25.6-12.8 12.8-25.6 6.4-57.6-12.8-76.8-19.2-19.2-51.2-32-76.8-25.6-12.8 0-19.2 12.8-12.8 25.6 0 12.8 12.8 19.2 25.6 12.8 12.8 0 25.6 0 38.4 12.8C704 390.4 710.4 403.2 704 416 704 422.4 710.4 435.2 716.8 441.6z" p-id="116350" fill="#d81e06"></path><path d="M480 512c-51.2-12.8-102.4 12.8-128 57.6-19.2 44.8 0 96 51.2 108.8 51.2 12.8 108.8-6.4 134.4-57.6C556.8 576 531.2 531.2 480 512zM441.6 627.2c-6.4 12.8-32 19.2-44.8 12.8S377.6 620.8 390.4 608c6.4-12.8 32-19.2 44.8-12.8C448 595.2 454.4 614.4 441.6 627.2zM480 588.8c0 6.4-12.8 6.4-19.2 6.4C454.4 588.8 448 582.4 454.4 576c0-6.4 12.8-6.4 19.2-6.4C480 576 480 582.4 480 588.8z" p-id="116351" fill="#d81e06"></path></svg>