<?xml version="1.0" standalone="no"?><!DOCTYPE svg PUBLIC "-//W3C//DTD SVG 1.1//EN" "http://www.w3.org/Graphics/SVG/1.1/DTD/svg11.dtd"><svg t="1494661347047" class="icon" style="" viewBox="0 0 1024 1024" version="1.1" xmlns="http://www.w3.org/2000/svg" p-id="117232" xmlns:xlink="http://www.w3.org/1999/xlink" width="75" height="75"><defs><style type="text/css"></style></defs><path d="M512 1024c-283.022222 0-512-228.977778-512-512s228.977778-512 512-512c283.022222 0 512 228.977778 512 512S795.022222 1024 512 1024zM512 28.444444c-265.955556 0-483.555556 217.6-483.555556 483.555556 0 265.955556 217.6 483.555556 483.555556 483.555556s483.555556-217.6 483.555556-483.555556C995.555556 244.622222 779.377778 28.444444 512 28.444444z" p-id="117233" class="selected" fill="#62b900"></path><path d="M641.422222 415.288889c-61.155556 2.844444-115.2 21.333333-157.866667 64-44.088889 42.666667-64 93.866667-58.311111 159.288889-24.177778-2.844444-45.511111-5.688889-68.266667-8.533333-7.111111 0-17.066667 0-22.755556 4.266667-21.333333 11.377778-41.244444 25.6-65.422222 41.244444 4.266667-19.911111 7.111111-36.977778 12.8-54.044444 4.266667-12.8 1.422222-19.911111-9.955556-27.022222C197.688889 540.444444 166.4 463.644444 190.577778 382.577778 211.911111 308.622222 264.533333 264.533333 335.644444 240.355556c98.133333-31.288889 207.644444 0 267.377778 78.222222C624.355556 347.022222 637.155556 378.311111 641.422222 415.288889zM358.4 391.111111c0-14.222222-12.8-28.444444-27.022222-28.444444-15.644444 0-28.444444 11.377778-28.444444 27.022222 0 15.644444 11.377778 27.022222 27.022222 28.444444C345.6 418.133333 358.4 405.333333 358.4 391.111111zM506.311111 362.666667c-15.644444 0-28.444444 12.8-27.022222 28.444444 0 15.644444 12.8 27.022222 28.444444 27.022222 15.644444 0 27.022222-12.8 27.022222-28.444444C533.333333 374.044444 521.955556 362.666667 506.311111 362.666667z" p-id="117234" class="selected" fill="#62b900"></path><path d="M777.955556 797.866667c-19.911111-8.533333-36.977778-21.333333-55.466667-24.177778-18.488889-1.422222-38.4 8.533333-58.311111 11.377778-59.733333 5.688889-113.777778-9.955556-157.866667-51.2-83.911111-78.222222-72.533333-197.688889 25.6-261.688889 86.755556-56.888889 214.755556-38.4 275.911111 41.244444 54.044444 68.266667 46.933333 160.711111-18.488889 217.6-18.488889 17.066667-25.6 29.866667-14.222222 52.622222C776.533333 787.911111 776.533333 792.177778 777.955556 797.866667zM557.511111 583.111111c12.8 0 22.755556-9.955556 22.755556-21.333333 0-12.8-9.955556-24.177778-22.755556-24.177778-12.8 0-24.177778 11.377778-22.755556 24.177778C534.755556 574.577778 546.133333 583.111111 557.511111 583.111111zM699.733333 537.6c-11.377778 0-22.755556 9.955556-22.755556 21.333333 0 12.8 9.955556 24.177778 22.755556 24.177778 12.8 0 22.755556-9.955556 22.755556-21.333333C722.488889 548.977778 712.533333 539.022222 699.733333 537.6z" p-id="117235" class="selected" fill="#62b900"></path></svg>