<?xml version="1.0" standalone="no"?><!DOCTYPE svg PUBLIC "-//W3C//DTD SVG 1.1//EN" "http://www.w3.org/Graphics/SVG/1.1/DTD/svg11.dtd"><svg t="1494648861058" class="icon" style="" viewBox="0 0 1024 1024" version="1.1" xmlns="http://www.w3.org/2000/svg" p-id="2920" xmlns:xlink="http://www.w3.org/1999/xlink" width="28" height="28"><defs><style type="text/css"></style></defs><path d="M881.738437 0 142.260539 0c-78.55717 0-142.239562 63.682391-142.239562 142.239562l0 739.520877c0 78.55717 63.682391 142.239562 142.239562 142.239562l739.478921 0c78.55717 0 142.239562-63.682391 142.239562-142.239562L1023.979022 142.239562C1023.977999 63.682391 960.295608 0 881.738437 0zM511.999488 826.358641c-26.824949 0-52.940746-2.450818-78.347392-6.609535L250.033102 931.146219 250.033102 745.689367c-95.726202-67.2568-157.179832-170.334433-157.179832-286.082644 0-202.545042 187.648774-366.752942 419.146219-366.752942 231.498468 0 419.147242 164.208922 419.147242 366.752942C931.145707 662.183488 743.496933 826.358641 511.999488 826.358641z" p-id="2921" fill="#ea9518"></path><path d="M511.999488 145.247058c-202.511273 0-366.751918 140.736325-366.751918 314.359664 0 106.527199 61.969377 200.480011 156.535149 257.354346l-1.677199 121.488958 123.325793-74.125231c28.405957 6.093788 57.939597 9.640568 88.537476 9.640568 202.575742 0 366.751918-140.735301 366.751918-314.358641C878.75243 286.015106 714.577277 145.247058 511.999488 145.247058zM302.426379 512c-28.888957 0-52.393277-23.439852-52.393277-52.393277s23.50432-52.393277 52.393277-52.393277c28.92068 0 52.393277 23.472598 52.393277 52.393277C354.819656 488.527402 331.347059 512 302.426379 512zM511.999488 512c-28.887934 0-52.392254-23.439852-52.392254-52.393277s23.50432-52.393277 52.392254-52.393277c28.921703 0 52.393277 23.472598 52.393277 52.393277C564.392766 488.527402 540.921191 512 511.999488 512zM721.573621 512c-28.921703 0-52.393277-23.439852-52.393277-52.393277s23.472598-52.393277 52.393277-52.393277c28.92068 0 52.392254 23.472598 52.392254 52.393277C773.965875 488.527402 750.493278 512 721.573621 512z" p-id="2922" fill="#ea9518"></path></svg>