<?xml version="1.0" standalone="no"?><!DOCTYPE svg PUBLIC "-//W3C//DTD SVG 1.1//EN" "http://www.w3.org/Graphics/SVG/1.1/DTD/svg11.dtd"><svg t="1494659548512" class="icon" style="" viewBox="0 0 1024 1024" version="1.1" xmlns="http://www.w3.org/2000/svg" p-id="107029" xmlns:xlink="http://www.w3.org/1999/xlink" width="32" height="32"><defs><style type="text/css"></style></defs><path d="M868.864 376.32 210.432 376.32c-1.536-129.536 77.824-267.776 241.152-307.712 112.64-25.6 233.984 18.432 306.688 109.056 8.192 11.776 32.256 20.48 52.224 6.144 22.016-20.992 3.072-44.544-2.048-49.664-91.136-100.864-229.376-151.552-368.64-120.32C263.68 53.248 143.36 204.8 139.264 380.416c-35.328 12.288-71.168 50.688-71.168 84.48l0 471.04c0 40.96 53.248 83.456 94.208 83.456l705.024 0c40.96 0 91.136-43.52 91.136-84.48L958.464 461.824C957.952 420.864 919.552 376.32 868.864 376.32zM901.632 895.488c0 40.96-26.112 67.072-67.072 67.072L191.488 962.56c-40.96 0-67.072-26.112-67.072-67.072l0.512-395.776c0-40.96 26.112-67.072 67.072-67.072L834.56 432.64c40.96 0 67.072 26.112 67.072 67.072L901.632 895.488z" p-id="107030" fill="#333333"></path><path d="M525.312 549.376c-47.616 0-86.528 38.912-86.528 86.528 0 34.304 20.48 64 49.664 77.824L488.448 808.96c0 20.48 16.384 36.864 36.864 36.864s36.864-16.384 36.864-36.864l0-95.232c29.184-13.824 49.664-43.52 49.664-77.824C611.84 588.288 572.928 549.376 525.312 549.376z" p-id="107031" fill="#333333"></path><path d="M845.312 312.832c19.456 0 35.328-15.872 35.328-35.328s-15.872-35.328-35.328-35.328c-19.456 0-35.328 15.872-35.328 35.328S825.856 312.832 845.312 312.832z" p-id="107032" fill="#333333"></path></svg>