<?xml version="1.0" standalone="no"?><!DOCTYPE svg PUBLIC "-//W3C//DTD SVG 1.1//EN" "http://www.w3.org/Graphics/SVG/1.1/DTD/svg11.dtd"><svg t="1494656834168" class="icon" style="" viewBox="0 0 1024 1024" version="1.1" xmlns="http://www.w3.org/2000/svg" p-id="95762" xmlns:xlink="http://www.w3.org/1999/xlink" width="28" height="28"><defs><style type="text/css"></style></defs><path d="M514.048 412.672c-44.202667 0-80.213333 36.010667-80.213333 80.213333s36.010667 80.213333 80.213333 80.213334 80.213333-36.010667 80.213333-80.213334-36.010667-80.213333-80.213333-80.213333z" fill="#1296db" p-id="95763"></path><path d="M793.770667 435.370667c-27.648-3.242667-54.272-16.384-83.626667-41.472-38.058667-32.426667-26.794667-98.133333-22.869333-120.32-2.048-6.144-22.186667-17.237333-29.866667-21.504-3.584-2.048-6.826667-3.754667-9.898667-5.632-19.797333-11.776-28.672-14.677333-32.426666-15.189334-12.117333 14.677333-31.914667 26.965333-58.88 36.522667-20.821333 7.338667-38.570667 10.410667-39.253334 10.581333v-0.341333h-4.778666v0.341333c-0.682667-0.170667-18.432-3.242667-39.253334-10.581333-26.965333-9.557333-46.762667-21.845333-58.88-36.522667-3.754667 0.512-12.629333 3.413333-32.426666 15.189334-3.072 1.877333-6.314667 3.584-9.898667 5.632-7.68 4.266667-27.818667 15.36-29.866667 21.504 3.925333 22.016 15.36 87.893333-22.869333 120.32-29.354667 25.088-55.978667 38.229333-83.626667 41.472-2.730667 2.901333-7.509333 17.237333-5.973333 44.714666 1.024 18.432 0.170667 38.912-0.170667 44.714667 0.682667 4.778667 4.608 26.453333 18.090667 27.989333 18.261333 2.048 36.693333 7.68 51.541333 15.872 19.285333 10.581333 32.597333 24.917333 38.741334 41.984 11.264 31.232 13.141333 69.802667 4.266666 91.818667-2.56 6.485333-3.242667 12.629333-1.536 16.213333 0.341333 0.853333 1.706667 3.584 7.509334 5.802667 20.309333 7.509333 50.517333 24.576 57.856 28.842667 3.754667 1.024 15.018667 3.072 24.576-5.802667 0.341333-0.341333 0.682667-0.512 1.024-0.853333 6.485333-7.168 15.530667-14.336 25.770666-20.650667 19.626667-12.8 38.570667-18.944 57.344-18.432 18.773333-0.512 37.717333 5.632 57.344 18.432 10.410667 6.314667 19.285333 13.482667 25.770667 20.650667 0.341333 0.341333 0.682667 0.512 1.024 0.853333 9.557333 9.045333 20.992 6.826667 24.576 5.802667 7.338667-4.266667 37.717333-21.333333 57.856-28.842667 5.973333-2.218667 7.168-4.949333 7.509333-5.802667 1.536-3.584 1.024-9.728-1.536-16.213333-8.704-21.845333-6.997333-60.416 4.266667-91.818667 6.144-16.896 19.456-31.402667 38.741333-41.984 14.848-8.192 33.28-13.824 51.541334-15.872 13.482667-1.536 17.408-23.210667 18.090666-27.989333-0.341333-5.802667-1.194667-26.453333-0.170666-44.714667 1.706667-27.648-3.072-41.813333-5.632-44.714666z m-279.722667 158.208c-55.466667 0-100.693333-45.226667-100.693333-100.693334s45.226667-100.693333 100.693333-100.693333 100.693333 45.226667 100.693333 100.693333c0 55.637333-45.226667 100.693333-100.693333 100.693334z" fill="#1296db" p-id="95764"></path><path d="M854.528 0.170667H174.421333c-83.797333 0-152.405333 68.608-152.405333 152.405333v679.936c0 83.797333 68.608 152.405333 152.405333 152.405333h679.936c83.797333 0 152.405333-68.608 152.405334-152.405333V152.576c0.170667-83.797333-68.437333-152.405333-152.234667-152.405333z m-20.48 526.677333c-1.877333 20.309333-14.165333 55.808-48.298667 59.733333-24.746667 2.901333-54.784 15.189333-62.122666 35.498667-9.045333 25.088-9.728 55.125333-4.778667 67.584 6.144 15.36 6.485333 30.549333 1.024 42.666667-3.413333 7.68-10.922667 18.090667-26.965333 24.064-19.968 7.338667-53.930667 26.965333-54.272 27.136l-1.194667 0.682666-1.365333 0.512c-4.949333 1.877333-12.117333 3.413333-20.138667 3.413334-12.629333 0-27.818667-3.754667-40.789333-16.042667-0.512-0.512-1.024-1.024-1.536-1.365333l-0.341334-0.341334c-5.802667-5.290667-11.264-9.898667-16.554666-13.653333-12.117333-7.850667-27.818667-14.677333-42.154667-15.189333-14.336 0.682667-30.037333 7.509333-42.154667 15.189333-5.290667 3.754667-10.922667 8.362667-16.725333 13.653333l-0.341333 0.341334c-0.512 0.512-1.024 1.024-1.536 1.365333-12.970667 12.288-28.16 16.042667-40.789334 16.042667-8.192 0-15.189333-1.536-20.138666-3.413334l-1.365334-0.512-1.194666-0.682666c-0.341333-0.170667-34.304-19.797333-54.272-27.136-16.042667-5.973333-23.552-16.384-26.965334-24.064-5.461333-12.288-5.12-27.477333 1.024-42.666667 4.949333-12.458667 4.266667-42.496-4.778666-67.584-7.338667-20.309333-37.376-32.597333-62.122667-35.498667-34.304-3.925333-46.421333-39.424-48.298667-59.733333l-0.170666-1.365333v-1.365334c0-0.170667 1.365333-23.210667 0.341333-42.325333-2.730667-48.981333 9.898667-77.653333 35.669333-80.554667 20.821333-2.389333 41.813333-12.970667 65.877334-33.621333 15.530667-13.312 19.456-43.178667 11.264-88.746667-4.949333-28.16 26.282667-45.568 46.933333-57.002666 3.242667-1.877333 6.314667-3.584 8.874667-5.12 18.261333-10.922667 52.224-31.402667 72.192-12.629334l1.194666 1.194667 1.024 1.365333c14.848 20.821333 57.173333 33.109333 76.117334 36.864 18.944-3.754667 61.269333-15.872 76.117333-36.864l1.024-1.365333 1.194667-1.194667c19.968-18.773333 53.930667 1.536 72.192 12.629334 2.56 1.536 5.632 3.242667 8.874666 5.12 20.650667 11.434667 51.882667 28.672 46.933334 57.002666-8.021333 45.568-4.266667 75.434667 11.264 88.746667 24.234667 20.650667 45.056 31.232 65.877333 33.621333 25.770667 2.901333 38.4 31.402667 35.669333 80.554667-1.024 19.285333 0.341333 42.154667 0.341334 42.325333v1.365334l0.341333 1.365333z" fill="#1296db" p-id="95765"></path></svg>